<svg width="2334" height="976" viewBox="2334 976" fill="none" xmlns="http://www.w3.org/2000/svg">
<g clip-path="url(#clip0_1_3067)">
<path fill-rule="evenodd" clip-rule="evenodd" d="M2334 499.895L2277.59 475.176C2223.13 450.456 2112.27 401.018 2001.4 425.737C1888.6 450.456 1777.73 549.333 1666.86 561.693C1556 574.053 1445.13 499.895 1334.27 512.255C1223.41 524.614 1110.59 623.491 999.73 710.009C888.865 796.526 778 870.684 667.135 920.123C556.27 969.561 445.405 994.281 332.595 969.561C221.73 944.842 110.865 870.684 56.405 833.605L0 796.526V1019H56.405C110.865 1019 221.73 1019 332.595 1019C445.405 1019 556.27 1019 667.135 1019C778 1019 888.865 1019 999.73 1019C1110.59 1019 1223.41 1019 1334.27 1019C1445.13 1019 1556 1019 1666.86 1019C1777.73 1019 1888.6 1019 2001.4 1019C2112.27 1019 2223.13 1019 2277.59 1019H2334V499.895Z" fill="#4F52FF"/>
<path fill-rule="evenodd" clip-rule="evenodd" d="M2334 787.296L2277.59 739.024C2223.13 690.753 2112.27 594.209 2001.4 613.518C1888.6 632.827 1777.73 767.987 1666.86 777.642C1556 787.296 1445.13 671.444 1334.27 632.827C1223.41 594.209 1110.59 632.827 999.73 671.444C888.865 710.061 778 748.679 667.135 767.987C556.27 787.296 445.405 787.296 332.595 767.987C221.73 748.679 110.865 710.061 56.405 690.753L0 671.444V1019H56.405C110.865 1019 221.73 1019 332.595 1019C445.405 1019 556.27 1019 667.135 1019C778 1019 888.865 1019 999.73 1019C1110.59 1019 1223.41 1019 1334.27 1019C1445.13 1019 1556 1019 1666.86 1019C1777.73 1019 1888.6 1019 2001.4 1019C2112.27 1019 2223.13 1019 2277.59 1019H2334V787.296Z" fill="#9CBAFA"/>
<path d="M2047.82 534.08C2052.13 531.702 2056.75 529.622 2061.37 528.433L2063.22 519.219C2063.83 517.139 2065.68 515.356 2068.14 515.356L2082.92 515.059C2085.39 515.059 2087.23 516.545 2087.85 518.625L2090.31 527.838C2094.93 529.027 2099.86 530.81 2104.17 533.188L2112.48 527.838C2114.33 526.65 2116.79 526.947 2118.33 528.433L2129.11 538.538C2130.65 540.024 2130.96 542.401 2130.03 544.185L2124.8 552.209C2127.26 556.37 2129.42 560.828 2130.65 565.286L2141.12 567.366C2142.96 567.664 2144.19 569.15 2144.19 570.933L2144.5 586.982C2144.5 588.765 2143.27 590.251 2141.73 590.548L2131.26 592.926C2130.03 597.384 2128.18 602.139 2125.72 606.3L2130.65 613.73C2132.19 615.811 2131.88 618.783 2130.03 620.863L2120.79 630.076C2118.95 631.86 2115.87 632.454 2113.4 630.968L2105.71 626.51C2101.4 628.888 2096.78 630.968 2092.16 632.157L2090 641.964C2089.7 643.748 2087.85 645.234 2086 645.234L2069.99 645.531C2068.14 645.531 2066.3 644.342 2065.68 642.559L2063.22 632.751C2058.6 631.562 2053.67 629.779 2049.36 627.402L2041.05 632.454C2039.2 633.643 2036.43 633.346 2034.89 631.86L2024.11 622.052C2022.57 620.566 2022.27 618.188 2023.19 616.108L2028.12 608.083C2025.65 603.922 2023.5 599.464 2022.27 595.006L2011.49 592.926C2009.95 592.629 2008.72 591.143 2008.72 589.657L2008.41 573.31C2008.41 571.824 2009.64 570.338 2011.18 569.744L2021.65 567.366C2022.88 562.908 2024.73 558.153 2027.19 553.992L2021.96 546.265C2020.73 544.185 2020.73 541.807 2022.57 540.024L2032.43 530.216C2034.28 528.433 2036.74 528.136 2038.89 529.324L2047.82 534.08ZM2062.29 561.422C2049.67 571.23 2049.98 589.359 2062.91 598.87C2071.53 605.111 2084.15 605.111 2092.47 598.276C2105.09 588.468 2104.78 570.338 2091.85 560.828C2083.23 554.587 2070.61 554.587 2062.29 561.422Z" fill="#FE766A"/>
<path d="M1558.99 627.416C1562.69 625.336 1566.69 623.553 1570.69 622.661L1572.23 614.934C1572.54 613.151 1574.39 611.665 1576.23 611.665L1588.86 611.367C1590.7 611.367 1592.55 612.556 1593.17 614.637L1595.01 622.364C1599.02 623.256 1603.02 624.742 1606.71 626.822L1613.8 622.364C1615.34 621.472 1617.49 621.472 1619.03 622.958L1628.27 631.577C1629.5 632.766 1629.81 634.847 1628.88 636.63L1624.57 643.465C1626.73 647.032 1628.58 650.896 1629.5 654.759L1638.43 656.542C1639.97 656.84 1640.89 658.028 1640.89 659.514L1641.2 673.186C1641.2 674.672 1640.28 675.861 1638.74 676.158L1629.81 678.238C1628.88 682.102 1627.34 685.966 1625.19 689.532L1629.5 695.773C1630.73 697.556 1630.42 700.231 1628.88 701.717L1620.88 709.742C1619.34 711.228 1616.57 711.822 1614.72 710.633L1608.25 706.77C1604.56 708.85 1600.56 710.633 1596.55 711.525L1594.71 719.847C1594.4 721.333 1592.86 722.522 1591.32 722.522L1577.77 722.819C1576.23 722.819 1574.69 721.63 1574.08 720.144L1571.92 711.822C1567.92 710.931 1563.92 709.445 1560.22 707.364L1553.14 711.822C1551.6 713.011 1549.45 712.714 1547.91 711.228L1538.67 702.906C1537.13 701.717 1536.82 699.637 1538.05 697.854L1542.36 691.018C1540.21 687.452 1538.36 683.588 1537.44 679.724L1528.51 677.941C1526.97 677.644 1526.05 676.455 1526.05 674.969L1525.74 661C1525.74 659.514 1526.66 658.326 1528.2 658.028L1537.13 655.948C1538.05 652.084 1539.59 648.221 1541.75 644.654L1537.44 638.116C1536.21 636.333 1536.51 634.252 1538.05 632.766L1546.67 624.147C1548.21 622.661 1550.37 622.364 1552.22 623.553L1558.99 627.416ZM1571.31 650.598C1560.53 658.92 1560.84 674.375 1571.92 682.399C1579.31 687.749 1590.09 687.749 1597.17 682.102C1607.95 673.78 1607.64 658.326 1596.55 650.301C1589.16 644.951 1578.7 644.951 1571.31 650.598Z" fill="#9CBAFA"/>
<path d="M1673.65 858.584H1895.03C1900.88 858.584 1905.5 854.126 1905.5 848.479V713.846C1905.5 708.199 1900.88 703.741 1895.03 703.741H1673.65C1667.8 703.741 1663.18 708.199 1663.18 713.846V848.479C1663.49 854.126 1668.11 858.584 1673.65 858.584Z" fill="#1A0F91"/>
<path d="M1751.85 733.461C1730.92 733.461 1709.67 733.461 1688.74 733.461C1686.27 733.461 1686.27 737.325 1688.74 737.325C1709.67 737.325 1730.92 737.325 1751.85 737.325C1754.32 737.028 1754.32 733.461 1751.85 733.461Z" fill="#FE766A"/>
<path d="M1874.71 773.584C1850.07 759.912 1827.91 768.531 1809.12 785.769C1789.11 803.899 1769.71 794.982 1746 792.01C1730.3 789.93 1714.91 792.308 1700.13 797.657C1697.97 798.549 1698.9 802.115 1701.05 801.224C1719.53 794.388 1736.46 793.794 1755.55 797.36C1767.25 799.738 1779.26 803.007 1791.27 800.332C1802.04 797.954 1808.82 790.524 1816.51 783.392C1832.22 769.126 1853.46 765.856 1872.55 776.556C1874.71 778.042 1876.86 774.773 1874.71 773.584Z" fill="#FE766A"/>
<path d="M1874.4 801.521H1878.71C1882.71 801.521 1885.79 798.252 1885.79 794.388L1884.56 749.51C1884.56 745.647 1881.17 742.675 1877.17 742.675H1872.86C1868.86 742.675 1865.78 745.944 1865.78 749.807L1867.01 794.685C1867.01 798.549 1870.39 801.521 1874.4 801.521Z" fill="#FE766A"/>
<path d="M1841.14 794.685H1845.46C1849.46 794.685 1852.54 791.416 1852.54 787.552L1851 742.675C1851 738.811 1847.61 735.839 1843.61 735.839H1839.3C1835.29 735.839 1832.22 739.108 1832.22 742.972L1833.45 787.849C1833.76 791.713 1837.14 794.685 1841.14 794.685Z" fill="#FE766A"/>
<path d="M1841.14 794.685H1845.46C1849.46 794.685 1852.54 791.416 1852.54 787.552L1851 742.675C1851 738.811 1847.61 735.839 1843.61 735.839H1839.3C1835.29 735.839 1832.22 739.108 1832.22 742.972L1833.45 787.849C1833.76 791.713 1837.14 794.685 1841.14 794.685Z" fill="#E0E7FE"/>
<path d="M1696.74 812.22H1701.05C1705.05 812.22 1708.13 808.951 1708.13 805.087L1706.9 760.209C1706.9 756.346 1703.51 753.374 1699.51 753.374H1695.2C1691.2 753.374 1688.12 756.643 1688.12 760.507L1689.35 805.384C1689.66 809.248 1692.74 812.22 1696.74 812.22Z" fill="#FE766A"/>
<path d="M1783.57 830.647H1787.88C1791.88 830.647 1794.96 827.378 1794.96 823.514L1793.73 778.636C1793.73 774.773 1790.34 771.801 1786.34 771.801H1782.03C1778.03 771.801 1774.95 775.07 1774.95 778.933L1776.18 823.811C1776.18 827.675 1779.57 830.944 1783.57 830.647Z" fill="#FE766A"/>
<path d="M1783.57 830.647H1787.88C1791.88 830.647 1794.96 827.378 1794.96 823.514L1793.73 778.636C1793.73 774.773 1790.34 771.801 1786.34 771.801H1782.03C1778.03 771.801 1774.95 775.07 1774.95 778.933L1776.18 823.811C1776.18 827.675 1779.57 830.944 1783.57 830.647Z" fill="#E0E7FE"/>
<path d="M1810.05 808.654H1814.36C1818.36 808.654 1821.44 805.384 1821.44 801.521L1820.21 756.643C1820.21 752.779 1816.82 749.807 1812.82 749.807H1808.51C1804.5 749.807 1801.43 753.077 1801.43 756.94L1802.66 801.818C1802.97 805.682 1806.04 808.654 1810.05 808.654Z" fill="#FE766A"/>
<path d="M1754.93 814.004H1759.24C1763.25 814.004 1766.33 810.734 1766.33 806.871L1765.09 761.993C1765.09 758.129 1761.71 755.157 1757.7 755.157H1753.39C1749.39 755.157 1746.31 758.426 1746.31 762.29L1747.54 807.168C1747.54 811.031 1750.93 814.004 1754.93 814.004Z" fill="#FE766A"/>
<path d="M1727.22 825.594H1731.53C1735.54 825.594 1738.61 822.325 1738.61 818.461L1737.08 773.584C1737.08 769.72 1733.69 766.748 1729.69 766.748H1725.38C1721.37 766.748 1718.29 770.017 1718.29 773.881L1719.53 818.759C1719.83 822.622 1723.22 825.594 1727.22 825.594Z" fill="#FE766A"/>
<path d="M1727.22 825.594H1731.53C1735.54 825.594 1738.61 822.325 1738.61 818.461L1737.08 773.584C1737.08 769.72 1733.69 766.748 1729.69 766.748H1725.38C1721.37 766.748 1718.29 770.017 1718.29 773.881L1719.53 818.759C1719.83 822.622 1723.22 825.594 1727.22 825.594Z" fill="#E0E7FE"/>
<path d="M2242.84 855.105C2250.54 845.297 2255.16 832.815 2255.16 819.441C2255.16 786.748 2227.76 760 2193.58 760C2159.4 760 2132 786.451 2132 819.441C2132 852.43 2159.4 878.881 2193.58 878.881C2206.82 878.881 2219.14 874.721 2229.3 867.588C2231.76 869.668 2234.53 871.154 2237.3 872.343C2244.38 875.018 2252.7 875.018 2259.47 871.749C2251.77 869.668 2245.31 862.832 2242.84 855.105Z" fill="#DFF5FF"/>
<path d="M2193.58 822.413H2177.26C2174.18 822.413 2172.33 819.144 2173.87 816.469L2181.88 804.283L2190.5 791.504C2192.04 789.126 2195.73 789.126 2197.27 791.504L2205.9 804.283L2213.9 816.469C2215.44 819.144 2213.59 822.413 2210.51 822.413H2193.58Z" fill="#0766FF"/>
<path d="M2200.35 850.053H2187.42C2186.19 850.053 2185.27 849.161 2185.27 847.972V814.091C2185.27 812.902 2186.19 812.011 2187.42 812.011H2200.35C2201.59 812.011 2202.51 812.902 2202.51 814.091V847.675C2202.51 848.864 2201.59 850.053 2200.35 850.053Z" fill="#0766FF"/>
<path d="M940.181 775.172C942.028 789.437 938.334 804.298 928.173 816.483C908.467 840.556 872.443 844.717 847.196 825.696C832.725 814.7 825.027 798.056 825.335 781.413L800.703 780.818C800.395 804.595 811.172 828.371 832.109 844.42C867.825 871.168 919.552 865.224 947.571 830.749C962.35 812.322 967.584 789.735 963.889 768.336L940.181 775.172Z" fill="#4F52FF"/>
<path d="M918.628 738.318C930.944 747.829 938.333 761.203 940.181 775.172L963.889 768.633C960.502 749.909 950.341 732.374 933.715 719.594C933.407 719.297 932.791 719 932.483 718.703C928.481 724.35 922.631 732.077 918.628 738.318C918.32 738.021 918.32 738.021 918.628 738.318Z" fill="#DADDF3"/>
<path d="M915.857 736.238L930.02 716.92C895.228 693.143 846.888 699.385 819.485 731.483L838.882 746.046C857.972 724.053 891.533 719.892 915.857 736.238Z" fill="#4F52FF"/>
<path d="M915.857 736.238L930.02 716.92C895.228 693.143 846.888 699.385 819.485 731.483L838.882 746.046C857.972 724.053 891.533 719.892 915.857 736.238Z" fill="#FE766A"/>
<path d="M918.32 738.021C922.631 732.077 928.481 724.35 932.483 718.703C931.56 718.108 930.944 717.514 930.02 716.92L915.857 736.238C916.473 736.832 917.396 737.427 918.32 738.021Z" fill="#FE766A"/>
<path d="M819.485 731.78C819.177 732.374 818.561 732.671 818.253 732.969C817.638 733.86 816.714 734.752 816.098 735.643C805.937 749.315 801.011 765.067 800.703 780.818L825.335 781.413C825.335 770.713 828.722 759.717 835.496 750.206C836.111 749.315 836.727 748.423 837.343 747.532C837.651 746.937 838.267 746.64 838.575 746.343L819.485 731.78Z" fill="#B0E6FE"/>
<path d="M166.035 860.558C166.035 863.733 163.153 866.312 159.858 866.312C156.564 866.312 153.888 863.534 153.888 860.359C153.888 857.184 156.77 854.604 160.064 854.604C163.564 854.803 166.241 857.383 166.035 860.558Z" fill="#0766FF"/>
<path d="M165.623 878.219C165.623 881.394 162.741 883.974 159.447 883.974C156.152 883.974 153.476 881.195 153.476 878.02C153.476 874.845 156.358 872.266 159.653 872.266C163.153 872.266 165.829 874.845 165.623 878.219Z" fill="#0766FF"/>
<path d="M165.211 895.681C165.211 898.856 162.329 901.436 159.035 901.436C155.74 901.436 153.064 898.658 153.064 895.483C153.064 892.308 155.946 889.728 159.24 889.728C162.741 889.728 165.211 892.506 165.211 895.681Z" fill="#0766FF"/>
<path d="M146.27 924.654L298.418 924.455C303.359 924.455 307.271 920.685 307.271 915.922L307.065 831.387C307.065 826.625 303.154 822.854 298.212 822.854L146.064 823.053C141.123 823.053 137.211 826.823 137.211 831.586L137.417 916.121C137.211 920.883 141.329 924.654 146.27 924.654Z" stroke="white" stroke-width="2" stroke-miterlimit="10"/>
<path d="M244.477 864.527H291.418C293.889 864.527 295.948 862.542 295.948 860.161V859.566C295.948 857.184 293.889 855.2 291.418 855.2H244.477C242.006 855.2 239.947 857.184 239.947 859.566V860.161C239.741 862.542 241.8 864.527 244.477 864.527Z" fill="white"/>
<path d="M267.33 883.18H291.418C293.889 883.18 295.948 881.196 295.948 878.814V878.219C295.948 875.838 293.889 873.853 291.418 873.853H267.33C264.859 873.853 262.8 875.838 262.8 878.219V878.814C262.594 881.196 264.653 883.18 267.33 883.18Z" fill="#FE766A"/>
<path d="M196.3 900.643H220.388C222.859 900.643 224.918 898.658 224.918 896.277V895.682C224.918 893.3 222.859 891.316 220.388 891.316H196.3C193.829 891.316 191.771 893.3 191.771 895.682V896.277C191.771 898.658 193.829 900.643 196.3 900.643Z" fill="#FE766A"/>
<path d="M225.124 883.18H249.212C251.683 883.18 253.742 881.196 253.742 878.814V878.219C253.742 875.838 251.683 873.853 249.212 873.853H225.124C222.653 873.853 220.594 875.838 220.594 878.219V878.814C220.594 881.196 222.653 883.18 225.124 883.18Z" fill="#0766FF"/>
<path d="M244.477 901.039H290.183C292.654 901.039 294.712 899.055 294.712 896.674V896.078C294.712 893.697 292.654 891.713 290.183 891.713H244.477C242.006 891.713 239.947 893.697 239.947 896.078V896.674C239.947 899.055 242.006 901.039 244.477 901.039Z" fill="white"/>
<path d="M176.329 864.527H223.271C225.741 864.527 227.8 862.542 227.8 860.161V859.566C227.8 857.184 225.741 855.2 223.271 855.2H176.329C173.859 855.2 171.8 857.184 171.8 859.566V860.161C171.8 862.542 173.859 864.527 176.329 864.527Z" fill="white"/>
<path d="M137.417 843.294C194.035 843.294 250.653 843.294 307.066 843.294C308.713 843.294 308.713 840.714 307.066 840.714C250.447 840.714 193.829 840.714 137.417 840.714C135.77 840.714 135.77 843.294 137.417 843.294Z" fill="white"/>
<path d="M162.123 832.578C162.123 834.562 160.476 836.15 158.417 836.15C156.358 836.15 154.711 834.562 154.711 832.578C154.711 830.593 156.358 829.006 158.417 829.006C160.476 829.006 162.123 830.593 162.123 832.578Z" fill="white"/>
<path d="M173.241 832.578C173.241 834.562 171.594 836.15 169.535 836.15C167.476 836.15 165.829 834.562 165.829 832.578C165.829 830.593 167.476 829.006 169.535 829.006C171.594 829.006 173.241 830.593 173.241 832.578Z" fill="white"/>
<path d="M184.153 832.578C184.153 834.562 182.505 836.15 180.447 836.15C178.388 836.15 176.741 834.562 176.741 832.578C176.741 830.593 178.388 829.006 180.447 829.006C182.505 829.006 184.153 830.593 184.153 832.578Z" fill="white"/>
</g>
<defs>
<clipPath id="clip0_1_3067">
<rect width="2334" height="976" fill="white"/>
</clipPath>
</defs>
</svg>
